<svg width="1920" height="1117" viewBox="0 0 1920 1117" fill="none" xmlns="http://www.w3.org/2000/svg">
<g clip-path="url(#clip0_1640_185941)">
<rect width="1920" height="1117" fill="#1E1E2A"/>
<g filter="url(#filter0_f_1640_185941)">
<path d="M1053.63 -61.1092C1112.92 -123.607 1195.29 -159 1281.43 -159H1904.5C2077.92 -159 2218.5 -18.4174 2218.5 155V413.023C2218.5 612.138 2035.55 760.973 1840.6 720.452L1351.05 618.697C1293.82 606.802 1241.05 579.17 1198.67 538.911L1050.48 398.118C924.819 278.734 919.66 80.1109 1038.95 -45.6351L1053.63 -61.1092Z" fill="url(#paint0_linear_1640_185941)"/>
</g>
<g filter="url(#filter1_f_1640_185941)">
<path d="M-650.5 253C-650.5 79.5826 -509.917 -61 -336.5 -61H62.8547C200.737 -61 273.218 -224.55 180.605 -326.699V-326.699C49.6899 -471.095 243.58 -678.918 396.699 -558.321L2145.91 819.35C2379.12 1003.03 2250.77 1377.86 1953.91 1380.02L776.313 1388.59C739.394 1388.86 702.716 1382.62 667.966 1370.15L-442.56 971.622C-567.296 926.859 -650.5 808.601 -650.5 676.076V253Z" fill="url(#paint1_angular_1640_185941)"/>
</g>
<path d="M305.473 54.125C305.606 54.125 305.723 54.1092 305.823 54.0775C305.923 54.0442 306.006 53.9983 306.073 53.94C306.139 53.8817 306.189 53.8125 306.223 53.7325C306.256 53.6508 306.273 53.5608 306.273 53.4625C306.273 53.2658 306.208 53.1158 306.078 53.0125C305.948 52.9092 305.751 52.8575 305.488 52.8575H305.013V54.125H305.473ZM307.168 56H306.645C306.542 56 306.467 55.96 306.42 55.88L305.58 54.6675C305.552 54.6258 305.521 54.5958 305.488 54.5775C305.454 54.5592 305.404 54.55 305.338 54.55H305.013V56H304.428V52.4H305.488C305.724 52.4 305.928 52.4242 306.098 52.4725C306.269 52.5208 306.41 52.59 306.52 52.68C306.63 52.7683 306.711 52.875 306.763 53C306.816 53.125 306.843 53.2642 306.843 53.4175C306.843 53.5425 306.823 53.6592 306.785 53.7675C306.748 53.8758 306.694 53.9742 306.623 54.0625C306.553 54.1508 306.466 54.2275 306.363 54.2925C306.259 54.3575 306.142 54.4083 306.01 54.445C306.082 54.4883 306.143 54.5492 306.195 54.6275L307.168 56Z" fill="white"/>
<circle cx="305.5" cy="54.5" r="3" stroke="white"/>
</g>
<defs>
<filter id="filter0_f_1640_185941" x="948.752" y="-163" width="1273.75" height="894.137" filterUnits="userSpaceOnUse" color-interpolation-filters="sRGB">
<feFlood flood-opacity="0" result="BackgroundImageFix"/>
<feBlend mode="normal" in="SourceGraphic" in2="BackgroundImageFix" result="shape"/>
<feGaussianBlur stdDeviation="2" result="effect1_foregroundBlur_1640_185941"/>
</filter>
<filter id="filter1_f_1640_185941" x="-654.5" y="-598.476" width="2924.72" height="1991.08" filterUnits="userSpaceOnUse" color-interpolation-filters="sRGB">
<feFlood flood-opacity="0" result="BackgroundImageFix"/>
<feBlend mode="normal" in="SourceGraphic" in2="BackgroundImageFix" result="shape"/>
<feGaussianBlur stdDeviation="2" result="effect1_foregroundBlur_1640_185941"/>
</filter>
<linearGradient id="paint0_linear_1640_185941" x1="1857.5" y1="-421.5" x2="163" y2="1231.5" gradientUnits="userSpaceOnUse">
<stop stop-color="#1A7FE1"/>
<stop offset="0.364369" stop-color="#0080FD" stop-opacity="0.631967"/>
<stop offset="1" stop-color="#1A7FE1" stop-opacity="0"/>
</linearGradient>
<radialGradient id="paint1_angular_1640_185941" cx="0" cy="0" r="1" gradientUnits="userSpaceOnUse" gradientTransform="translate(676.251 479) rotate(90) scale(479 905.25)">
<stop offset="0.245073" stop-color="#1A7FE1" stop-opacity="0.210266"/>
<stop offset="0.443027" stop-color="#1A7FE1" stop-opacity="0.380104"/>
<stop offset="0.567285" stop-color="#1A7FE1"/>
<stop offset="1" stop-color="#1A7FE1" stop-opacity="0"/>
</radialGradient>
<clipPath id="clip0_1640_185941">
<rect width="1920" height="1117" fill="white"/>
</clipPath>
</defs>
</svg>
